HIERARCHY
ROOT SpineBase
{
  OFFSET 0.000000 0.000000 0.000000
  CHANNELS 6 Xposition Yposition Zposition Zrotation Xrotation Yrotation
  JOINT SpineMid
  {
    OFFSET 0.000000 22.140886 0.000000
    CHANNELS 3 Zrotation Xrotation Yrotation
    JOINT SpineShoulder
    {
      OFFSET 0.278592 16.479057 -0.318747
      CHANNELS 3 Zrotation Xrotation Yrotation
      JOINT Neck
      {
        OFFSET 0.122614 5.460092 -0.283817
        CHANNELS 3 Zrotation Xrotation Yrotation
        JOINT Head
        {
          OFFSET 1.586965 9.959905 3.425621
          CHANNELS 3 Zrotation Xrotation Yrotation
          End Site
          {
            OFFSET 0 0 0
          }
        }
      }
      JOINT ShoulderLeft
      {
        OFFSET -2.367508 -4.572884 -11.910988
        CHANNELS 3 Zrotation Xrotation Yrotation
        JOINT ElbowLeft
        {
          OFFSET -1.438329 -19.802899 -4.753754
          CHANNELS 3 Zrotation Xrotation Yrotation
          JOINT WristLeft
          {
            OFFSET 3.302222 -20.332038 0.854531
            CHANNELS 3 Zrotation Xrotation Yrotation
            JOINT HandLeft
            {
              OFFSET 0.234228 -4.915486 1.147580
              CHANNELS 3 Zrotation Xrotation Yrotation
              JOINT HandTipLeft
              {
                OFFSET 0.993571 -6.474592 0.447373
                CHANNELS 3 Zrotation Xrotation Yrotation
                End Site
                {
                  OFFSET 0 0 0
                }
              }
              JOINT ThumbLeft
              {
                OFFSET -1.431656 -0.238854 -1.780067
                CHANNELS 3 Zrotation Xrotation Yrotation
                End Site
                {
                  OFFSET 0 0 0
                }
              }
            }
          }
        }
      }
      JOINT ShoulderRight
      {
        OFFSET 5.881631 -6.451929 13.020021
        CHANNELS 3 Zrotation Xrotation Yrotation
        JOINT ElbowRight
        {
          OFFSET 2.685848 -27.156476 -2.831452
          CHANNELS 3 Zrotation Xrotation Yrotation
          JOINT WristRight
          {
            OFFSET -1.839228 -18.715245 -13.516551
            CHANNELS 3 Zrotation Xrotation Yrotation
            JOINT HandRight
            {
              OFFSET -1.335721 -2.536674 -2.513719
              CHANNELS 3 Zrotation Xrotation Yrotation
              JOINT HandTipRight
              {
                OFFSET -0.392600 -4.647209 -1.441423
                CHANNELS 3 Zrotation Xrotation Yrotation
                End Site
                {
                  OFFSET 0 0 0
                }
              }
              JOINT ThumbRight
              {
                OFFSET 0.754458 -2.848285 0.152209
                CHANNELS 3 Zrotation Xrotation Yrotation
                End Site
                {
                  OFFSET 0 0 0
                }
              }
            }
          }
        }
      }
    }
  }
  JOINT HipLeft
  {
    OFFSET -0.920993 0.406957 -7.187037
    CHANNELS 3 Zrotation Xrotation Yrotation
    JOINT KneeLeft
    {
      OFFSET -8.403455 -42.101750 3.844416
      CHANNELS 3 Zrotation Xrotation Yrotation
      JOINT AnkleLeft
      {
        OFFSET -7.616892 -35.379657 2.485450
        CHANNELS 3 Zrotation Xrotation Yrotation
        JOINT FootLeft
        {
          OFFSET 2.575667 -6.139619 -0.467216
          CHANNELS 3 Zrotation Xrotation Yrotation
          End Site
          {
            OFFSET 0 0 0
          }
        }
      }
    }
  }
  JOINT HipRight
  {
    OFFSET 2.299034 0.358045 2.064200
    CHANNELS 3 Zrotation Xrotation Yrotation
    JOINT KneeRight
    {
      OFFSET 1.899295 -28.088751 14.680107
      CHANNELS 3 Zrotation Xrotation Yrotation
      JOINT AnkleRight
      {
        OFFSET -11.784552 -29.872069 -11.225925
        CHANNELS 3 Zrotation Xrotation Yrotation
        JOINT FootRight
        {
          OFFSET 7.887539 -3.791408 -4.703807
          CHANNELS 3 Zrotation Xrotation Yrotation
          End Site
          {
            OFFSET 0 0 0
          }
        }
      }
    }
  }
}
MOTION
Frames: 5
Frame Time: 0.033333
-87.438961 83.576614 336.752185 -3.094799 0.149360 -70.420809 1.346877 0.673171 70.366432 -0.205255 -0.876316 -0.066859 3.439990 -2.496310 0.312052 0.000000 0.000000 0.000000 2.212696 1.773014 0.041020 -0.946103 -1.234677 -0.250719 0.451366 3.508142 0.246877 4.165296 10.662772 1.996395 0.000000 0.000000 0.000000 0.000000 0.000000 0.000000 0.798631 2.040321 0.262166 0.696534 -5.727043 0.868455 -1.951736 11.757739 -1.174948 2.063508 -8.662462 0.990404 0.000000 0.000000 0.000000 0.000000 0.000000 0.000000 2.395956 3.337511 70.604431 -0.848234 0.990286 -0.267605 1.942944 1.509637 0.456178 0.000000 0.000000 0.000000 -7.954101 3.996840 70.510464 3.379187 -13.595026 2.245328 -1.567573 4.924412 -0.289655 0.000000 0.000000 0.000000
-87.396121 83.609689 336.691341 -3.047690 0.005101 -69.256693 1.368973 0.488500 69.199502 -0.182305 -0.878976 -0.068062 3.906063 -2.074660 0.127840 0.000000 0.000000 0.000000 2.286314 1.983820 0.034762 -1.083011 -1.253409 -0.261226 1.110062 4.746948 0.414350 4.039723 9.132698 1.849434 0.000000 0.000000 0.000000 0.000000 0.000000 0.000000 1.204431 1.250593 0.105765 -0.202237 -4.230430 1.369614 -0.556835 11.511201 -2.508594 1.616094 -9.176735 1.759786 0.000000 0.000000 0.000000 0.000000 0.000000 0.000000 2.307203 3.304269 69.438351 -0.855169 0.982871 -0.266750 2.398749 1.862117 0.554143 0.000000 0.000000 0.000000 -6.500791 3.493344 69.048249 3.323045 -11.079121 2.028257 -1.516178 4.157063 0.254594 0.000000 0.000000 0.000000
-87.296600 83.591385 336.622258 -2.905954 -0.079232 -67.257797 1.384475 0.319880 67.202808 -0.183683 -0.853233 -0.066046 4.076869 -1.892226 0.035436 0.000000 0.000000 0.000000 2.257405 2.088205 0.029351 -1.228417 -1.276322 -0.272963 0.552078 2.027217 0.144695 4.880034 9.281622 1.644815 0.000000 0.000000 0.000000 0.000000 0.000000 0.000000 1.592751 0.278702 -0.066687 -0.683503 -3.497236 1.630256 -0.649480 12.932833 -2.868634 3.181972 -11.595319 2.054606 0.000000 0.000000 0.000000 0.000000 0.000000 0.000000 2.099451 3.117665 67.410267 -0.777765 0.810531 -0.227142 2.223129 1.750059 0.526179 0.000000 0.000000 0.000000 -4.514911 2.780697 66.742821 3.272992 -8.399863 1.894171 -1.536215 3.711206 0.644423 0.000000 0.000000 0.000000
-87.310790 83.632130 336.570853 -2.937810 -0.163602 -66.208631 1.355847 0.310736 66.151874 -0.148630 -0.832249 -0.065313 4.117874 -1.710076 -0.010486 0.000000 0.000000 0.000000 2.253111 2.113672 0.028132 -1.279217 -1.305196 -0.280704 0.399748 0.462483 0.020383 5.961359 10.173636 1.530950 0.000000 0.000000 0.000000 0.000000 0.000000 0.000000 0.979022 1.132806 0.100268 -0.484900 -4.559435 1.772347 0.911796 15.433806 -5.356653 1.836936 -13.535143 4.152156 0.000000 0.000000 0.000000 0.000000 0.000000 0.000000 2.013693 3.260386 66.344096 -0.855209 0.691131 -0.210687 2.347247 2.016120 0.619764 0.000000 0.000000 0.000000 -1.673508 2.375310 65.699904 2.490704 -4.816185 1.320280 -1.563695 2.974852 1.090094 0.000000 0.000000 0.000000
-87.403154 83.689201 336.475775 -3.086988 -0.206107 -65.440362 1.344412 0.348318 65.379063 -0.094297 -0.803778 -0.066914 4.185134 -1.510212 -0.052616 0.000000 0.000000 0.000000 2.303538 2.090649 0.030807 -1.357291 -1.351830 -0.293046 1.350739 1.358376 0.261020 4.807242 8.706814 1.303283 0.000000 0.000000 0.000000 0.000000 0.000000 0.000000 -0.460753 3.283522 0.567159 1.717770 -7.868744 0.964390 2.049048 16.724695 -7.139280 -0.051586 -12.687977 5.834046 0.000000 0.000000 0.000000 0.000000 0.000000 0.000000 2.051573 3.608820 65.562401 -1.045719 0.572287 -0.204217 2.516236 2.154954 0.658284 0.000000 0.000000 0.000000 1.782052 2.214814 65.142994 1.270444 -0.861875 0.581295 -1.600573 2.229108 1.473050 0.000000 0.000000 0.000000
